<?xml version="1.0" ?><svg data-name="Layer 1" id="Layer_1" viewBox="0 0 32 32" xmlns="http://www.w3.org/2000/svg" width="26px" height="26px"><defs><style>.cls-1{fill:#fff;}</style></defs><title/><polygon class="cls-1" points="15 9 15 17 23 17 23 15 17 15 17 9 15 9"/><path class="cls-1" d="M16,1A15.1,15.1,0,0,0,3.46,7.78,3.75,3.75,0,0,0,3,9.29V4H1v8H9V10H4.48A13.18,13.18,0,0,1,16,2.9,13.19,13.19,0,0,1,29.1,16,13.19,13.19,0,0,1,16,29.1,13.17,13.17,0,0,1,3.54,19.72l-1.92.57A15,15,0,1,0,16,1Z"/></svg>