<svg fill="#000000" width="24px" height="24px" viewBox="0 0 256 256" id="Flat" xmlns="http://www.w3.org/2000/svg" stroke="#000000" stroke-width="12.8"><g id="SVGRepo_bgCarrier" stroke-width="0"></g><g id="SVGRepo_tracerCarrier" stroke-linecap="round" stroke-linejoin="round"></g><g id="SVGRepo_iconCarrier"> <path d="M208.48535,64.48535l-144,144a12.0001,12.0001,0,0,1-16.9707-16.9707l144-144a12.0001,12.0001,0,0,1,16.9707,16.9707ZM60,112a12,12,0,0,0,24,0V84h28a12,12,0,0,0,0-24H84V32a12,12,0,0,0-24,0V60H32a12,12,0,0,0,0,24H60Zm164,60H144a12,12,0,0,0,0,24h80a12,12,0,0,0,0-24Z"></path> </g></svg>